<?xml version="1.0" encoding="UTF-8"?>
<svg width="83px" height="32px" viewBox="0 0 83 32" version="1.1" xmlns="http://www.w3.org/2000/svg" xmlns:xlink="http://www.w3.org/1999/xlink">
    <!-- Generator: Sketch 52.3 (67297) - http://www.bohemiancoding.com/sketch -->
    <title>Fill 5</title>
    <desc>Created with Sketch.</desc>
    <g id="Symbols" stroke="none" stroke-width="1" fill="none" fill-rule="evenodd">
        <g id="CABECERA/COMPLETA/ES" transform="translate(-129.000000, -52.000000)" fill="#FFFFFF">
            <path d="M138,71 L138,77 L142.364774,77 L142.799917,76.9717464 L143.210693,76.88673 L143.573311,76.7312087 L143.899959,76.5189219 L144.190054,76.2783842 L144.41981,75.9810781 L144.625196,75.6415265 L144.782429,75.2594624 L144.903109,74.8773968 L144.964029,74.4385729 L145,74.0000029 L144.951844,73.5189262 L144.854953,73.0518443 L144.697722,72.6130146 L144.480149,72.230949 L144.226027,71.8913945 L143.924327,71.5800922 L143.573311,71.3395545 L143.198508,71.1555213 L142.787734,71.0422528 L142.364774,71 L138,71 Z M196,59 L196,65 L200.475805,65 L200.88464,64.9472324 L201.270479,64.8414426 L201.644541,64.6431848 L201.959707,64.3921568 L202.251888,64.075042 L202.508739,63.7312995 L202.719608,63.3347853 L202.871017,62.9251999 L202.976458,62.4625989 L203,61.9869267 L202.976458,61.5243271 L202.871017,61.075044 L202.719608,60.6519008 L202.508739,60.2556292 L202.251888,59.8988127 L201.959707,59.5947692 L201.644541,59.3437412 L201.270479,59.1585547 L200.88464,59.039699 L200.475805,59 L196,59 Z M138,59 L138,65 L142.098713,65 L142.604506,64.9472324 L143.056656,64.8547578 L143.456438,64.7092716 L143.815344,64.4846301 L144.134659,64.2202869 L144.400967,63.9295572 L144.600859,63.5991285 L144.773288,63.2292434 L144.89335,62.8327266 L144.973179,62.4229013 L145,61.9869267 L144.973179,61.5640287 L144.89335,61.1675133 L144.773288,60.7710005 L144.600859,60.3877975 L144.400967,60.0573701 L144.134659,59.7533266 L143.815344,59.5022999 L143.456438,59.290727 L143.056656,59.1321696 L142.604506,59.039699 L142.098713,59 L138,59 Z M188,52 L202.233215,52 L203.149635,52.0434682 L204.079576,52.1746668 L204.967589,52.3930675 L205.812994,52.6986687 L206.64419,53.0917348 L207.419267,53.5432027 L208.138192,54.0672002 L208.828719,54.634933 L209.448904,55.2901336 L209.998762,55.9890665 L210.506005,56.7314662 L210.942906,57.5322677 L211.322996,58.3912024 L211.605028,59.2645336 L211.83024,60.1965352 L211.957392,61.1426676 L212,62.118133 L211.957392,63.0789333 L211.83024,64.0253343 L211.605028,64.9426665 L211.322996,65.8306656 L210.942906,66.6749323 L210.506005,67.4757339 L209.998762,68.2181379 L209.448904,68.9317315 L208.828719,69.572267 L208.138192,70.1399999 L207.419267,70.6786669 L206.64419,71.1154653 L205.812994,71.5085343 L204.967589,71.8141325 L204.079576,72.0325317 L203.149635,72.1637319 L202.233215,72.2072015 L195.595778,72.2072015 L195.595778,84 L188,84 L188,52 Z M155,52 L162.653555,52 L162.653555,64.9133349 L173.332135,64.9133349 L173.332135,52 L181,52 L181,84 L173.332135,84 L173.332135,72.2072015 L162.653555,72.2072015 L162.653555,84 L155,84 L155,52 Z M129,52 L142.917645,52 L143.873046,52.0434682 L144.786015,52.1746668 L145.670241,52.378401 L146.540092,52.6696029 L147.353141,53.0336016 L148.123078,53.4557349 L148.836203,53.9506695 L149.506216,54.5184023 L150.105052,55.1154668 L150.661453,55.7706673 L151.131626,56.4840011 L151.516939,57.2264008 L151.844763,58.0125343 L152.058968,58.8280009 L152.215692,59.6869341 L152.272499,60.5602667 L152.24444,61.3901341 L152.144519,62.1762662 L152.002167,62.8898686 L151.816696,63.5448005 L151.560055,64.1709323 L151.260292,64.7533346 L150.93247,65.2920001 L150.561538,65.7869317 L150.148168,66.2528004 L149.706054,66.6896003 L149.20645,67.0826708 L148.70754,67.4757339 L148.179878,67.8250675 L148.678796,68.0581347 L149.164026,68.3056012 L149.63488,68.5821337 L150.090677,68.8733341 L150.518422,69.1936033 L150.903728,69.5432027 L151.28904,69.9216007 L151.63123,70.3293332 L151.930303,70.7952005 L152.201325,71.2901365 L152.443597,71.828802 L152.643437,72.4111984 L152.800161,73.0517325 L152.914451,73.7506654 L152.985627,74.4930681 L153,75.2938696 L152.97125,76.1527984 L152.843277,76.9970696 L152.643437,77.7687978 L152.372417,78.5258714 L152.030224,79.2245313 L151.63123,79.9087992 L151.174743,80.534931 L150.661453,81.1026682 L150.076991,81.6269344 L149.463785,82.107198 L148.807457,82.5440023 L148.123078,82.9079966 L147.381201,83.2429353 L146.62564,83.5047982 L145.841335,83.7231975 L145.042659,83.8688014 L144.215924,83.9706699 L143.388502,84 L129,84 L129,52 Z" id="Fill-5"></path>
        </g>
    </g>
</svg>